<?xml version="1.0" ?><svg height="32" id="svg4063" version="1.1" viewBox="0 0 32 32.000001" width="32" xmlns="http://www.w3.org/2000/svg" xmlns:cc="http://creativecommons.org/ns#" xmlns:dc="http://purl.org/dc/elements/1.1/" xmlns:inkscape="http://www.inkscape.org/namespaces/inkscape" xmlns:rdf="http://www.w3.org/1999/02/22-rdf-syntax-ns#" xmlns:sodipodi="http://sodipodi.sourceforge.net/DTD/sodipodi-0.dtd" xmlns:svg="http://www.w3.org/2000/svg"><defs id="defs4065"/><g id="layer1" transform="translate(0,-1020.3621)"><g id="g4107"><path d="m 16.18151,1022.861 c -2.66215,-0.038 -5.34608,0.7044 -7.68554,2.2675 -5.34738,3.5731 -7.43576,10.4587 -4.97461,16.4004 2.46112,5.9416 8.80371,9.3309 15.11133,8.0762 6.30761,-1.2547 10.87108,-6.8148 10.87109,-13.2461 l -0.006,0 0,-1.5 -12,0 0,4 3,0 3,0 1.82031,0 c -0.929,3.4816 -3.75791,6.229 -7.4375,6.9609 -4.52537,0.9001 -9.0292,-1.5068 -10.79492,-5.7695 -1.76574,-4.2629 -0.28372,-9.1495 3.55273,-11.7129 3.83644,-2.5634 8.91709,-2.0614 12.17969,1.2012 l 2.73047,-2.7285 c -2.27376,-2.2738 -5.20216,-3.5867 -8.22852,-3.8848 -0.37829,-0.037 -0.75836,-0.059 -1.13867,-0.064 z" id="path4099" style="color:#000000;font-style:normal;font-variant:normal;font-weight:normal;font-stretch:normal;font-size:medium;line-height:normal;font-family:sans-serif;text-indent:0;text-align:start;text-decoration:none;text-decoration-line:none;text-decoration-style:solid;text-decoration-color:#000000;letter-spacing:normal;word-spacing:normal;text-transform:none;direction:ltr;block-progression:tb;writing-mode:lr-tb;baseline-shift:baseline;text-anchor:start;white-space:normal;clip-rule:nonzero;display:inline;overflow:visible;visibility:visible;opacity:1;isolation:auto;mix-blend-mode:normal;color-interpolation:sRGB;color-interpolation-filters:linearRGB;solid-color:#000000;solid-opacity:1;fill:#d50707;fill-opacity:1;fill-rule:evenodd;stroke:none;stroke-width:1;stroke-linecap:round;stroke-linejoin:round;stroke-miterlimit:4;stroke-dasharray:none;stroke-dashoffset:0;stroke-opacity:1;color-rendering:auto;image-rendering:auto;shape-rendering:auto;text-rendering:auto;enable-background:accumulate"/><path d="m 6.80027,1039.2677 -3.20508,2.418 c 2.50808,5.842 8.78649,9.1633 15.03711,7.9199 2.88923,-0.5747 5.40463,-2.06 7.29101,-4.1113 l -3.02148,-2.416 c -1.32355,1.3599 -3.04281,2.3486 -5.02149,2.7421 -4.52537,0.9001 -9.0292,-1.5068 -10.79492,-5.7695 -0.10718,-0.2588 -0.20172,-0.5205 -0.28515,-0.7832 z" id="path4105" style="color:#000000;font-style:normal;font-variant:normal;font-weight:normal;font-stretch:normal;font-size:medium;line-height:normal;font-family:sans-serif;text-indent:0;text-align:start;text-decoration:none;text-decoration-line:none;text-decoration-style:solid;text-decoration-color:#000000;letter-spacing:normal;word-spacing:normal;text-transform:none;direction:ltr;block-progression:tb;writing-mode:lr-tb;baseline-shift:baseline;text-anchor:start;white-space:normal;clip-rule:nonzero;display:inline;overflow:visible;visibility:visible;opacity:1;isolation:auto;mix-blend-mode:normal;color-interpolation:sRGB;color-interpolation-filters:linearRGB;solid-color:#000000;solid-opacity:1;fill:#1eb615;fill-opacity:1;fill-rule:evenodd;stroke:none;stroke-width:1;stroke-linecap:round;stroke-linejoin:round;stroke-miterlimit:4;stroke-dasharray:none;stroke-dashoffset:0;stroke-opacity:1;color-rendering:auto;image-rendering:auto;shape-rendering:auto;text-rendering:auto;enable-background:accumulate"/><path d="m 4.99121,1028.537 c -2.62397,3.703 -3.2871,8.6047 -1.46985,12.9919 0.0416,0.1004 0.12808,0.299 0.12808,0.299 1.35395,-0.7817 2.35395,-1.4684 3.30607,-2.1162 -0.043,-0.1144 -0.0872,-0.2349 -0.11606,-0.3219 -0.96598,-2.908 -0.48068,-6.0303 1.18359,-8.4673 -2.01965,-1.563 -2.01965,-1.563 -3.03183,-2.3855 z" id="path4101" style="color:#000000;font-style:normal;font-variant:normal;font-weight:normal;font-stretch:normal;font-size:medium;line-height:normal;font-family:sans-serif;text-indent:0;text-align:start;text-decoration:none;text-decoration-line:none;text-decoration-style:solid;text-decoration-color:#000000;letter-spacing:normal;word-spacing:normal;text-transform:none;direction:ltr;block-progression:tb;writing-mode:lr-tb;baseline-shift:baseline;text-anchor:start;white-space:normal;clip-rule:nonzero;display:inline;overflow:visible;visibility:visible;opacity:1;isolation:auto;mix-blend-mode:normal;color-interpolation:sRGB;color-interpolation-filters:linearRGB;solid-color:#000000;solid-opacity:1;fill:#ffaf00;fill-opacity:1;fill-rule:evenodd;stroke:none;stroke-width:1;stroke-linecap:round;stroke-linejoin:round;stroke-miterlimit:4;stroke-dasharray:none;stroke-dashoffset:0;stroke-opacity:1;color-rendering:auto;image-rendering:auto;shape-rendering:auto;text-rendering:auto;enable-background:accumulate"/><path d="m 17.49753,1034.8595 0,4 3,0 3,0 1.82031,0 c -0.42943,1.6094 -1.27827,3.0497 -2.41601,4.2188 l 3.02148,2.416 c 2.23187,-2.4271 3.58007,-5.6494 3.58008,-9.1348 l -0.006,0 0,-1.5 -12,0 z" id="path4112" style="color:#000000;font-style:normal;font-variant:normal;font-weight:normal;font-stretch:normal;font-size:medium;line-height:normal;font-family:sans-serif;text-indent:0;text-align:start;text-decoration:none;text-decoration-line:none;text-decoration-style:solid;text-decoration-color:#000000;letter-spacing:normal;word-spacing:normal;text-transform:none;direction:ltr;block-progression:tb;writing-mode:lr-tb;baseline-shift:baseline;text-anchor:start;white-space:normal;clip-rule:nonzero;display:inline;overflow:visible;visibility:visible;opacity:1;isolation:auto;mix-blend-mode:normal;color-interpolation:sRGB;color-interpolation-filters:linearRGB;solid-color:#000000;solid-opacity:1;fill:#0084ff;fill-opacity:1;fill-rule:evenodd;stroke:none;stroke-width:1;stroke-linecap:round;stroke-linejoin:round;stroke-miterlimit:4;stroke-dasharray:none;stroke-dashoffset:0;stroke-opacity:1;color-rendering:auto;image-rendering:auto;shape-rendering:auto;text-rendering:auto;enable-background:accumulate"/><path d="m 16.1875,1022.3613 c -2.759242,-0.039 -5.543783,0.7314 -7.96875,2.3516 -5.5441009,3.7045 -7.71184026,10.8475 -5.1601562,17.0078 2.5516222,6.1601 9.1323682,9.6758 15.6718752,8.375 6.539566,-1.3008 11.273427,-7.0685 11.273437,-13.7363 a 0.50005,0.50005 0 0 0 -0.0059,-0.074 l 0,-1.4258 a 0.50005,0.50005 0 0 0 -0.5,-0.5 l -12,0 a 0.50005,0.50005 0 0 0 -0.5,0.5 l 0,4 a 0.50005,0.50005 0 0 0 0.5,0.5 l 3,0 3,0 1.072265,0 c -1.043577,2.9845 -3.530327,5.3229 -6.787109,5.9707 -4.29585,0.8544 -8.5601829,-1.4243 -10.236328,-5.4707 -1.6761897,-4.0467 -0.272705,-8.6721 3.369141,-11.1055 3.641816,-2.4334 8.451617,-1.9585 11.548828,1.1387 a 0.50005,0.50005 0 0 0 0.707031,0 l 2.730469,-2.7285 a 0.50005,0.50005 0 0 0 0,-0.7071 c -2.357494,-2.3575 -5.39563,-3.7202 -8.533203,-4.0293 -0.373338,-0.036 -0.750153,-0.056 -1.126953,-0.062 -0.0026,0 -0.0052,-0 -0.0078,-0 a 0.50005,0.50005 0 0 0 -0.04492,-0 c -6.51e-4,0 -0.0013,0 -0.002,0 z m -0.01367,1 c 0.365411,0 0.732548,0.027 1.097656,0.062 2.750858,0.271 5.375927,1.4813 7.507813,3.4492 l -2.023438,2.0215 c -3.434063,-3.1025 -8.508801,-3.569 -12.394531,-0.9726 -4.0310543,2.6934 -5.5935714,7.8412 -3.7382811,12.3203 1.8552948,4.4789 6.6005791,7.0141 11.3554691,6.0683 3.866312,-0.769 6.844972,-3.6596 7.822265,-7.3222 a 0.50005,0.50005 0 0 0 -0.482422,-0.6289 l -1.820312,0 -3,0 -2.5,0 0,-3 11,0 0,1 a 0.50005,0.50005 0 0 0 0.002,0.027 c -0.01345,6.1827 -4.3985,11.5218 -10.464844,12.7285 -6.075733,1.2086 -12.1821164,-2.0542 -14.5527341,-7.7773 -2.370616,-5.7231 -0.3596435,-12.3513 4.7910156,-15.793 2.2533875,-1.5056 4.8359655,-2.2202 7.4003905,-2.1836 z" id="path3575" style="color:#000000;font-style:normal;font-variant:normal;font-weight:normal;font-stretch:normal;font-size:medium;line-height:normal;font-family:sans-serif;text-indent:0;text-align:start;text-decoration:none;text-decoration-line:none;text-decoration-style:solid;text-decoration-color:#000000;letter-spacing:normal;word-spacing:normal;text-transform:none;direction:ltr;block-progression:tb;writing-mode:lr-tb;baseline-shift:baseline;text-anchor:start;white-space:normal;clip-rule:nonzero;display:inline;overflow:visible;visibility:visible;opacity:1;isolation:auto;mix-blend-mode:normal;color-interpolation:sRGB;color-interpolation-filters:linearRGB;solid-color:#000000;solid-opacity:1;fill:#000000;fill-opacity:1;fill-rule:evenodd;stroke:none;stroke-width:1;stroke-linecap:round;stroke-linejoin:round;stroke-miterlimit:4;stroke-dasharray:none;stroke-dashoffset:0;stroke-opacity:1;color-rendering:auto;image-rendering:auto;shape-rendering:auto;text-rendering:auto;enable-background:accumulate"/><path d="m 5.3085938,1028.0488 -0.6308594,0.7754 3.0292968,2.4688 0.6308594,-0.7754 -3.0292968,-2.4688 z m 17.9140622,14.5899 -0.630859,0.7754 2.990234,2.4336 0.63086,-0.7754 -2.990235,-2.4336 z" id="path3577" style="color:#000000;font-style:normal;font-variant:normal;font-weight:normal;font-stretch:normal;font-size:medium;line-height:normal;font-family:sans-serif;text-indent:0;text-align:start;text-decoration:none;text-decoration-line:none;text-decoration-style:solid;text-decoration-color:#000000;letter-spacing:normal;word-spacing:normal;text-transform:none;direction:ltr;block-progression:tb;writing-mode:lr-tb;baseline-shift:baseline;text-anchor:start;white-space:normal;clip-rule:nonzero;display:inline;overflow:visible;visibility:visible;opacity:1;isolation:auto;mix-blend-mode:normal;color-interpolation:sRGB;color-interpolation-filters:linearRGB;solid-color:#000000;solid-opacity:1;fill:#000000;fill-opacity:1;fill-rule:evenodd;stroke:none;stroke-width:1px;stroke-linecap:butt;stroke-linejoin:miter;stroke-miterlimit:4;stroke-dasharray:none;stroke-dashoffset:0;stroke-opacity:1;color-rendering:auto;image-rendering:auto;shape-rendering:auto;text-rendering:auto;enable-background:accumulate"/><path d="m 6.5800781,1039.0273 -3.3457031,2.5059 0.5996094,0.8008 3.3457031,-2.5059 -0.5996094,-0.8008 z" id="path3579" style="color:#000000;font-style:normal;font-variant:normal;font-weight:normal;font-stretch:normal;font-size:medium;line-height:normal;font-family:sans-serif;text-indent:0;text-align:start;text-decoration:none;text-decoration-line:none;text-decoration-style:solid;text-decoration-color:#000000;letter-spacing:normal;word-spacing:normal;text-transform:none;direction:ltr;block-progression:tb;writing-mode:lr-tb;baseline-shift:baseline;text-anchor:start;white-space:normal;clip-rule:nonzero;display:inline;overflow:visible;visibility:visible;opacity:1;isolation:auto;mix-blend-mode:normal;color-interpolation:sRGB;color-interpolation-filters:linearRGB;solid-color:#000000;solid-opacity:1;fill:#000000;fill-opacity:1;fill-rule:evenodd;stroke:none;stroke-width:1px;stroke-linecap:butt;stroke-linejoin:miter;stroke-miterlimit:4;stroke-dasharray:none;stroke-dashoffset:0;stroke-opacity:1;color-rendering:auto;image-rendering:auto;shape-rendering:auto;text-rendering:auto;enable-background:accumulate"/></g></g></svg>