<?xml version="1.0" encoding="UTF-8"?>
<svg width="752pt" height="752pt" version="1.1" viewBox="0 0 752 752" xmlns="http://www.w3.org/2000/svg">
 <defs>
  <clipPath id="a">
   <path d="m139.21 139.21h473.58v473.58h-473.58z"/>
  </clipPath>
 </defs>
 <path d="m376 304.96c-18.84 0-36.906 7.4844-50.23 20.805-13.32 13.324-20.805 31.391-20.805 50.23s7.4844 36.91 20.805 50.23c13.324 13.324 31.391 20.809 50.23 20.809s36.91-7.4844 50.23-20.809c13.324-13.32 20.809-31.391 20.809-50.23-0.027343-18.832-7.5234-36.883-20.836-50.199-13.316-13.316-31.371-20.809-50.203-20.836zm0 115.77v-0.003907c-11.859 0-23.238-4.7109-31.625-13.098-8.3867-8.3867-13.102-19.766-13.102-31.629 0-11.859 4.7148-23.238 13.102-31.625s19.766-13.102 31.625-13.102c11.863 0 23.242 4.7148 31.629 13.102 8.3867 8.3867 13.098 19.766 13.098 31.625-0.011718 11.859-4.7305 23.227-13.113 31.613-8.3867 8.3828-19.754 13.102-31.613 13.113z" fill="#fff"/>
 <g clip-path="url(#a)">
  <path d="m599.64 362.85h-66.355c-3.1133-37.184-19.301-72.059-45.684-98.441-26.383-26.387-61.258-42.57-98.441-45.688v-66.352c0-7.2656-5.8906-13.156-13.156-13.156s-13.152 5.8906-13.152 13.156v66.352c-37.184 3.1172-72.059 19.301-98.441 45.688-26.387 26.383-42.57 61.258-45.688 98.441h-66.352c-7.2656 0-13.156 5.8867-13.156 13.152s5.8906 13.156 13.156 13.156h66.352c3.1172 37.184 19.301 72.059 45.688 98.441 26.383 26.383 61.258 42.57 98.441 45.684v66.355c0 7.2656 5.8867 13.156 13.152 13.156s13.156-5.8906 13.156-13.156v-66.355c37.184-3.1133 72.059-19.301 98.441-45.684 26.383-26.383 42.57-61.258 45.684-98.441h66.355c7.2656 0 13.156-5.8906 13.156-13.156s-5.8906-13.152-13.156-13.152zm-210.48 144.02v-20.363c0-7.2656-5.8906-13.156-13.156-13.156s-13.152 5.8906-13.152 13.156v20.363c-30.188-3.0391-58.391-16.418-79.844-37.867-21.453-21.453-34.828-49.66-37.867-79.844h20.363c7.2656 0 13.152-5.8906 13.152-13.156s-5.8867-13.152-13.152-13.152h-20.363c3.0391-30.188 16.414-58.391 37.867-79.844s49.656-34.828 79.844-37.867v20.363c0 7.2656 5.8867 13.152 13.152 13.152s13.156-5.8867 13.156-13.152v-20.363c30.184 3.0391 58.391 16.414 79.844 37.867 21.449 21.453 34.828 49.656 37.867 79.844h-20.363c-7.2656 0-13.156 5.8867-13.156 13.152s5.8906 13.156 13.156 13.156h20.363c-3.0391 30.184-16.418 58.391-37.867 79.844-21.453 21.449-49.66 34.828-79.844 37.867z" fill="#fff"/>
 </g>
</svg>
